<group> ampeg_release=1.3
<region> sample=Sustain\1_E.wav pitch_keycenter=e1 hikey=f1
<region> sample=Sustain\1_Ab.wav pitch_keycenter=g#1 lokey=f#1 hikey=a1
<region> sample=Sustain\2_C.wav pitch_keycenter=c2 lokey=a#1 hikey=c#2
<region> sample=Sustain\2_E.wav pitch_keycenter=e2 lokey=d2 hikey=f2
<region> sample=Sustain\2_Ab.wav pitch_keycenter=g#2 lokey=f#2 hikey=a2
<region> sample=Sustain\3_C.wav pitch_keycenter=c3 lokey=a#2 hikey=c#3
<region> sample=Sustain\3_E.wav pitch_keycenter=e3 lokey=d3 hikey=f3
<region> sample=Sustain\3_Ab.wav pitch_keycenter=g#3 lokey=f#3 hikey=c4
